<svg width="1440" height="1024" viewBox="0 0 1440 1024" fill="none" xmlns="http://www.w3.org/2000/svg">
<rect width="844" height="1024" fill="#1B1B1B"/>
<path d="M1479 275C1479 602.505 1167.5 541 840 541C512.495 541 537.5 252.5 640.5 189.5C743.5 126.5 455.995 -74.5 783.5 -74.5C1111 -74.5 1479 -52.5049 1479 275Z" fill="url(#paint0_radial_681_13054)"/>
<path d="M848 262.5C848 479.272 291 467.5 89.4998 781.5C-196.5 932.5 48.4997 298.771 48.4997 82C48.4997 -134.772 340 25.4999 434 -27.9999C528 -81.4997 848 45.7286 848 262.5Z" fill="url(#paint1_radial_681_13054)"/>
<path d="M210 494.5C439 742.5 353.505 1114 26 1114C-301.505 1114 -567 848.505 -567 521C-567 193.495 -301.505 -72 26 -72C353.505 -72 -19 246.5 210 494.5Z" fill="url(#paint2_radial_681_13054)"/>
<path d="M1196.5 739.468C1196.5 1066.97 921 1410.97 485 1087.33C157.495 1087.33 -264 746.834 -264 419.329C-264 91.8239 157.495 114.329 485 114.329C359.5 681.329 1196.5 411.964 1196.5 739.468Z" fill="url(#paint3_radial_681_13054)"/>
<defs>
<radialGradient id="paint0_radial_681_13054" cx="0" cy="0" r="1" gradientUnits="userSpaceOnUse" gradientTransform="translate(886 275) rotate(90) scale(593 593)">
<stop stop-color="#392A27"/>
<stop offset="0.465278" stop-color="#201611" stop-opacity="0.43"/>
<stop offset="1" stop-color="#2B261F" stop-opacity="0.05"/>
</radialGradient>
<radialGradient id="paint1_radial_681_13054" cx="0" cy="0" r="1" gradientUnits="userSpaceOnUse" gradientTransform="translate(474.5 492.5) rotate(90) scale(392.5 392.5)">
<stop stop-color="#1D1342"/>
<stop offset="0.465278" stop-color="#1D2E49" stop-opacity="0.43"/>
<stop offset="1" stop-color="#2B261F" stop-opacity="0"/>
</radialGradient>
<radialGradient id="paint2_radial_681_13054" cx="0" cy="0" r="1" gradientUnits="userSpaceOnUse" gradientTransform="translate(26 521) rotate(90) scale(593 593)">
<stop stop-color="#241426"/>
<stop offset="0.465278" stop-color="#4D1E38" stop-opacity="0.43"/>
<stop offset="1" stop-color="#2B261F" stop-opacity="0.16"/>
</radialGradient>
<radialGradient id="paint3_radial_681_13054" cx="0" cy="0" r="1" gradientUnits="userSpaceOnUse" gradientTransform="translate(844.001 899.329) rotate(90) scale(593 593)">
<stop stop-color="#51285B"/>
<stop offset="0.434028" stop-color="#361439" stop-opacity="0.43"/>
<stop offset="1" stop-color="#2B261F" stop-opacity="0"/>
</radialGradient>
</defs>
</svg>
