<svg width="326" height="204" viewBox="0 0 326 204" fill="none" xmlns="http://www.w3.org/2000/svg">
<path d="M2.41699 160L25.0488 52.9199H53.6865L43.7988 98.623L54.4189 83.6816L77.8564 52.9199H111.475L71.1182 102.285L90.8936 160H58.8135L46.0693 117.666L38.9648 121.768L31.0547 160H2.41699ZM102.759 160L125.391 52.9199H154.028L131.396 160H102.759ZM155.786 160L178.418 52.9199H211.743L232.69 124.917H233.35C233.594 122.769 233.936 120.034 234.375 116.714C234.863 113.394 235.376 110.024 235.913 106.606C236.499 103.188 237.036 100.234 237.524 97.7441L247.119 52.9199H272.607L249.976 160H216.65L195.483 84.707H194.897C194.849 85.6836 194.702 87.3682 194.458 89.7607C194.214 92.1045 193.896 94.79 193.506 97.8174C193.115 100.845 192.676 103.921 192.188 107.046C191.748 110.122 191.26 112.881 190.723 115.322L181.274 160H155.786ZM274.292 160L296.924 52.9199H325.562L302.93 160H274.292Z" fill="white"/>
<circle cx="142" cy="24" r="18" fill="white"/>
</svg>
