<svg width="582" height="768" viewBox="0 0 582 768" fill="none" xmlns="http://www.w3.org/2000/svg">
<path d="M168 767.779L-1.99999 767.779L168 591.969L168 767.779Z" fill="url(#paint0_linear_126_1300)"/>
<path d="M-1.99999 541.294V365.483L168 541.294H-1.99999Z" fill="url(#paint1_linear_126_1300)"/>
<rect x="7.62939e-06" y="186.57" width="173" height="178.913" fill="url(#paint2_linear_126_1300)"/>
<path d="M173.295 180.365C168.714 113.971 146.339 98.0041 86.6476 90.7559L173.295 180.365Z" fill="url(#paint3_linear_126_1300)"/>
<path d="M86.6477 90.7559C91.229 157.15 113.604 173.117 173.295 180.365L86.6477 90.7559Z" fill="url(#paint4_linear_126_1300)"/>
<path d="M86.6475 90.7559C82.0661 157.15 59.6908 173.117 -0.000305176 180.365L86.6475 90.7559Z" fill="url(#paint5_linear_126_1300)"/>
<path d="M-0.000236511 180.365C4.5811 113.971 26.9564 98.0041 86.6475 90.7559L-0.000236511 180.365Z" fill="url(#paint6_linear_126_1300)"/>
<path d="M86.6475 90.0273C91.2288 23.6332 113.604 7.66618 173.295 0.417976L86.6475 90.0273Z" fill="url(#paint7_linear_126_1300)"/>
<path d="M173.295 0.417969C168.714 66.8121 146.339 82.7791 86.6474 90.0273L173.295 0.417969Z" fill="url(#paint8_linear_126_1300)"/>
<path d="M7.62939e-06 2.18066C4.58134 68.5748 26.9567 84.5418 86.6478 91.79L7.62939e-06 2.18066Z" fill="url(#paint9_linear_126_1300)"/>
<path d="M86.6477 91.79C82.0664 25.3959 59.6911 9.42887 -6.10352e-05 2.18067L86.6477 91.79Z" fill="url(#paint10_linear_126_1300)"/>
<circle cx="331" cy="435" r="251" fill="#001118"/>
<path d="M170.417 493L193.049 385.92H221.687L211.799 431.623L222.419 416.682L245.856 385.92H279.475L239.118 435.285L258.894 493H226.813L214.069 450.666L206.965 454.768L199.055 493H170.417ZM270.759 493L293.391 385.92H322.028L299.396 493H270.759ZM323.786 493L346.418 385.92H379.743L400.69 457.917H401.35C401.594 455.769 401.936 453.034 402.375 449.714C402.863 446.394 403.376 443.024 403.913 439.606C404.499 436.188 405.036 433.234 405.524 430.744L415.119 385.92H440.607L417.976 493H384.65L363.483 417.707H362.897C362.849 418.684 362.702 420.368 362.458 422.761C362.214 425.104 361.896 427.79 361.506 430.817C361.115 433.845 360.676 436.921 360.188 440.046C359.748 443.122 359.26 445.881 358.723 448.322L349.274 493H323.786ZM442.292 493L464.924 385.92H493.562L470.93 493H442.292Z" fill="white"/>
<circle cx="310" cy="355" r="18" fill="white"/>
<defs>
<linearGradient id="paint0_linear_126_1300" x1="-2" y1="679.874" x2="168" y2="679.874" gradientUnits="userSpaceOnUse">
<stop stop-color="#606C38"/>
<stop offset="1" stop-color="#606C38" stop-opacity="0"/>
</linearGradient>
<linearGradient id="paint1_linear_126_1300" x1="83" y1="365.483" x2="83" y2="541.294" gradientUnits="userSpaceOnUse">
<stop stop-color="#606C38"/>
<stop offset="1" stop-color="#606C38" stop-opacity="0"/>
</linearGradient>
<linearGradient id="paint2_linear_126_1300" x1="86.5" y1="186.57" x2="86.5" y2="365.483" gradientUnits="userSpaceOnUse">
<stop stop-color="#606C38"/>
<stop offset="1" stop-color="#606C38" stop-opacity="0"/>
</linearGradient>
<linearGradient id="paint3_linear_126_1300" x1="129.972" y1="180.365" x2="129.972" y2="90.7559" gradientUnits="userSpaceOnUse">
<stop stop-color="#606C38"/>
<stop offset="1" stop-color="#606C38" stop-opacity="0"/>
</linearGradient>
<linearGradient id="paint4_linear_126_1300" x1="129.972" y1="90.7559" x2="129.972" y2="180.365" gradientUnits="userSpaceOnUse">
<stop stop-color="#606C38"/>
<stop offset="1" stop-color="#606C38" stop-opacity="0"/>
</linearGradient>
<linearGradient id="paint5_linear_126_1300" x1="43.3236" y1="90.7559" x2="43.3236" y2="180.365" gradientUnits="userSpaceOnUse">
<stop stop-color="#606C38"/>
<stop offset="1" stop-color="#606C38" stop-opacity="0"/>
</linearGradient>
<linearGradient id="paint6_linear_126_1300" x1="43.3237" y1="180.365" x2="43.3237" y2="90.7559" gradientUnits="userSpaceOnUse">
<stop stop-color="#606C38"/>
<stop offset="1" stop-color="#606C38" stop-opacity="0"/>
</linearGradient>
<linearGradient id="paint7_linear_126_1300" x1="129.971" y1="90.0273" x2="129.971" y2="0.417976" gradientUnits="userSpaceOnUse">
<stop stop-color="#606C38"/>
<stop offset="1" stop-color="#606C38" stop-opacity="0"/>
</linearGradient>
<linearGradient id="paint8_linear_126_1300" x1="129.971" y1="0.417969" x2="129.971" y2="90.0273" gradientUnits="userSpaceOnUse">
<stop stop-color="#606C38"/>
<stop offset="1" stop-color="#606C38" stop-opacity="0"/>
</linearGradient>
<linearGradient id="paint9_linear_126_1300" x1="43.3239" y1="2.18066" x2="43.3239" y2="91.79" gradientUnits="userSpaceOnUse">
<stop stop-color="#606C38"/>
<stop offset="1" stop-color="#606C38" stop-opacity="0"/>
</linearGradient>
<linearGradient id="paint10_linear_126_1300" x1="43.3238" y1="91.79" x2="43.3238" y2="2.18067" gradientUnits="userSpaceOnUse">
<stop stop-color="#606C38"/>
<stop offset="1" stop-color="#606C38" stop-opacity="0"/>
</linearGradient>
</defs>
</svg>
